<?xml version="1.0" standalone="no"?>
<!DOCTYPE svg PUBLIC "-//W3C//DTD SVG 20010904//EN"
 "http://www.w3.org/TR/2001/REC-SVG-20010904/DTD/svg10.dtd">
<svg version="1.0" xmlns="http://www.w3.org/2000/svg"
 width="512.000000pt" height="512.000000pt" viewBox="0 0 512.000000 512.000000"
 preserveAspectRatio="xMidYMid meet">
<metadata>
Created by potrace 1.14, written by Peter Selinger 2001-2017
</metadata>
<g transform="translate(0.000000,512.000000) scale(0.100000,-0.100000)"
fill="#000000" stroke="none">
<path d="M2135 5103 c-38 -8 -104 -29 -145 -46 l-75 -32 -43 22 c-60 30 -195
25 -307 -12 -263 -87 -532 -301 -636 -507 -97 -192 -70 -366 82 -528 95 -101
156 -201 175 -285 11 -51 13 -157 3 -215 -17 -106 -21 -159 -14 -191 9 -40 54
-85 94 -94 23 -5 35 -18 56 -61 29 -59 105 -148 158 -184 l35 -24 -18 -40
c-79 -189 -170 -522 -195 -721 -3 -27 -8 -59 -10 -70 -2 -11 -4 -32 -4 -46 -1
-25 -5 -27 -63 -33 -199 -22 -344 -109 -414 -249 -35 -69 -62 -204 -59 -297 3
-78 13 -174 20 -200 2 -8 7 -28 9 -45 16 -91 83 -302 128 -405 53 -119 178
-416 178 -424 0 -3 -3 -5 -7 -4 -7 2 -68 -7 -121 -18 -29 -6 -116 -57 -139
-82 -55 -61 -80 -169 -59 -262 12 -51 -8 -50 718 -50 661 0 680 1 718 20 22
11 47 31 55 44 15 22 17 22 64 10 119 -31 302 -35 420 -10 40 9 77 18 81 21 5
3 18 -7 29 -21 11 -14 37 -34 58 -45 36 -18 68 -19 720 -19 l683 0 15 24 c20
30 26 117 13 177 -16 67 -65 129 -129 161 -62 31 -120 48 -166 48 l-33 0 19
48 c10 26 62 148 114 272 52 124 109 270 125 325 26 86 35 118 48 180 43 207
40 391 -11 518 -10 24 -11 37 -4 37 21 0 189 89 247 130 74 53 152 128 163
158 10 27 -1 54 -32 76 l-21 14 24 34 c63 86 128 242 143 348 21 137 11 288
-27 417 -24 83 -37 98 -82 95 -29 -2 -32 1 -50 50 -58 166 -193 303 -352 357
-60 20 -78 18 -104 -14 -15 -18 -15 -13 27 -195 14 -63 20 -267 8 -320 -3 -14
-8 -38 -11 -55 -19 -110 -89 -280 -158 -387 -80 -124 -247 -318 -273 -318 -8
0 -12 4 -9 8 3 4 1 26 -4 48 -5 21 -11 57 -15 79 -3 22 -10 58 -16 80 -6 22
-13 49 -15 60 -2 11 -6 30 -8 43 -12 58 -111 358 -136 414 -12 25 -10 29 68
105 56 54 89 96 107 134 21 48 30 57 63 67 83 25 106 93 83 235 -41 244 -2
363 188 567 78 84 114 164 119 265 7 135 -34 239 -150 382 -94 116 -229 222
-379 299 -148 77 -224 98 -350 98 -81 0 -101 -3 -129 -21 -30 -19 -37 -20 -60
-8 -137 72 -178 78 -590 80 -279 1 -382 -2 -435 -12z"/>
</g>
</svg>
